<?xml version="1.0" encoding="UTF-8" standalone="no"?>
<svg
   xmlns:dc="http://purl.org/dc/elements/1.1/"
   xmlns:cc="http://creativecommons.org/ns#"
   xmlns:rdf="http://www.w3.org/1999/02/22-rdf-syntax-ns#"
   xmlns:svg="http://www.w3.org/2000/svg"
   xmlns="http://www.w3.org/2000/svg"
   xmlns:sodipodi="http://sodipodi.sourceforge.net/DTD/sodipodi-0.dtd"
   xmlns:inkscape="http://www.inkscape.org/namespaces/inkscape"
   id="svg8"
   version="1.1"
   viewBox="0 0 8.4666665 8.4666669"
   height="32"
   width="32"
   sodipodi:docname="fevicon.svg"
   inkscape:version="0.92.3 (2405546, 2018-03-11)">
  <sodipodi:namedview
     pagecolor="#ffffff"
     bordercolor="#666666"
     borderopacity="1"
     objecttolerance="10"
     gridtolerance="10"
     guidetolerance="10"
     inkscape:pageopacity="0"
     inkscape:pageshadow="2"
     inkscape:window-width="1600"
     inkscape:window-height="836"
     id="namedview16"
     showgrid="false"
     inkscape:showpageshadow="false"
     inkscape:zoom="10.429825"
     inkscape:cx="17.426184"
     inkscape:cy="19.429462"
     inkscape:window-x="0"
     inkscape:window-y="27"
     inkscape:window-maximized="1"
     inkscape:current-layer="svg8" />
  <defs
     id="defs2" />
  <metadata
     id="metadata5">
    <rdf:RDF>
      <cc:Work
         rdf:about="">
        <dc:format>image/svg+xml</dc:format>
        <dc:type
           rdf:resource="http://purl.org/dc/dcmitype/StillImage" />
        <dc:title />
      </cc:Work>
    </rdf:RDF>
  </metadata>
  <rect
     style="fill:#000000;fill-opacity:1;fill-rule:evenodd;stroke:#feab00;stroke-width:0.14860411;stroke-linecap:square;stroke-linejoin:miter;stroke-miterlimit:4;stroke-dasharray:none;stroke-dashoffset:0;stroke-opacity:1;paint-order:markers fill stroke"
     id="rect824"
     width="8.3043766"
     height="8.3551121"
     x="0.10962804"
     y="0.078029737" />
  <g
     transform="translate(0,-288.53332)"
     id="layer1"
     style="fill:#ffc300;fill-opacity:1;stroke:#fec000;stroke-opacity:1">
    <g
       aria-label="blog"
       transform="matrix(0.26458333,0,0,0.26458333,0.6142113,288.58057)"
       style="font-style:normal;font-variant:normal;font-weight:bold;font-stretch:normal;font-size:5.33333349px;line-height:1.25;font-family:sans-serif;-inkscape-font-specification:'sans-serif Bold';letter-spacing:0px;word-spacing:0px;fill:#ffc300;fill-opacity:1;stroke:#fec000;stroke-width:0.5;stroke-miterlimit:4;stroke-dasharray:none;stroke-opacity:1"
       id="flowRoot815">
      <path
         d="m 8.2330679,10.546912 c 0,-1.7813337 -1.28,-3.1253338 -2.9760001,-3.1253338 -0.768,0 -1.2906667,0.2133334 -1.8346667,0.7573334 V 5.6615782 H 2.0037344 v 7.8826668 h 1.3013334 v -0.757333 c 0.608,0.650666 1.1733333,0.896 2.048,0.896 1.6640001,0 2.8800001,-1.354667 2.8800001,-3.136 z m -1.4293334,0.01067 c 0,1.077334 -0.704,1.824 -1.7173333,1.824 -1.0240001,0 -1.7493334,-0.757333 -1.7493334,-1.834666 0,-1.066667 0.7253333,-1.8240004 1.7173333,-1.8240004 1.0133334,0 1.7493334,0.7786667 1.7493334,1.8346664 z"
         style="font-style:normal;font-variant:normal;font-weight:bold;font-stretch:normal;font-size:10.66666698px;font-family:'TeX Gyre Adventor';-inkscape-font-specification:'TeX Gyre Adventor Bold';fill:#ffc300;fill-opacity:1;stroke:#fec000;stroke-width:0.5;stroke-miterlimit:4;stroke-dasharray:none;stroke-opacity:1"
         id="path826" />
      <path
         d="M 10.464068,13.544245 V 5.6615782 H 9.0454014 v 7.8826668 z"
         style="font-style:normal;font-variant:normal;font-weight:bold;font-stretch:normal;font-size:10.66666698px;font-family:'TeX Gyre Adventor';-inkscape-font-specification:'TeX Gyre Adventor Bold';fill:#ffc300;fill-opacity:1;stroke:#fec000;stroke-width:0.5;stroke-miterlimit:4;stroke-dasharray:none;stroke-opacity:1"
         id="path828" />
      <path
         d="m 17.634568,10.632245 c 0,-1.76 -1.376,-3.1360001 -3.157333,-3.1360001 -1.717334,0 -3.125334,1.3973334 -3.125334,3.0933331 0,1.706667 1.408,3.093334 3.136,3.093334 1.717334,0 3.146667,-1.386667 3.146667,-3.050667 z m -1.429333,-0.04267 c 0,0.992 -0.768,1.792 -1.706667,1.792 -0.96,0 -1.717333,-0.8 -1.717333,-1.813333 0,-0.9706667 0.778666,-1.7706667 1.706666,-1.7706667 0.949334,0 1.717334,0.8106667 1.717334,1.7919997 z"
         style="font-style:normal;font-variant:normal;font-weight:bold;font-stretch:normal;font-size:10.66666698px;font-family:'TeX Gyre Adventor';-inkscape-font-specification:'TeX Gyre Adventor Bold';fill:#ffc300;fill-opacity:1;stroke:#fec000;stroke-width:0.5;stroke-miterlimit:4;stroke-dasharray:none;stroke-opacity:1"
         id="path830" />
      <path
         d="M 24.382568,12.424245 V 7.6349116 H 23.027901 V 8.3815783 C 22.590568,7.7842449 21.950568,7.4962449 21.097234,7.4962449 c -1.674666,0 -2.912,1.3013334 -2.912,3.0506671 0,1.824 1.216,3.136 2.901334,3.136 0.832,0 1.386667,-0.266667 1.941333,-0.917334 -0.05333,1.269334 -0.597333,1.888 -1.653333,1.888 -0.661334,0 -1.066667,-0.170666 -1.482667,-0.629333 h -1.610667 c 0.48,1.184 1.589334,1.877333 3.04,1.877333 1.834667,0 3.061334,-0.938666 3.061334,-3.477333 z m -1.418667,-1.813333 c 0,1.066666 -0.672,1.770666 -1.685333,1.770666 -1.013334,0 -1.664,-0.693333 -1.664,-1.770666 0,-1.0880004 0.650666,-1.8133337 1.642666,-1.8133337 1.013334,0 1.706667,0.736 1.706667,1.8133337 z"
         style="font-style:normal;font-variant:normal;font-weight:bold;font-stretch:normal;font-size:10.66666698px;font-family:'TeX Gyre Adventor';-inkscape-font-specification:'TeX Gyre Adventor Bold';fill:#ffc300;fill-opacity:1;stroke:#fec000;stroke-width:0.5;stroke-miterlimit:4;stroke-dasharray:none;stroke-opacity:1"
         id="path832" />
    </g>
    <g
       aria-label="app"
       transform="matrix(0.26458333,0,0,0.26458333,0.73232887,288.01361)"
       style="font-style:normal;font-variant:normal;font-weight:bold;font-stretch:normal;font-size:5.33333349px;line-height:1.25;font-family:'TeX Gyre Adventor';-inkscape-font-specification:'TeX Gyre Adventor Bold';letter-spacing:0px;word-spacing:0px;fill:#ffc300;fill-opacity:1;stroke:#fec000;stroke-width:0.5;stroke-miterlimit:4;stroke-dasharray:none;stroke-opacity:1"
       id="flowRoot823">
      <path
         d="M 9.1498439,27.026667 V 21.117333 H 7.8485106 v 0.789334 c -0.4906667,-0.650667 -1.0773334,-0.928 -1.9306668,-0.928 -1.7493333,0 -3.008,1.312 -3.008,3.114667 0,1.781333 1.248,3.072 2.976,3.072 0.8320001,0 1.3973334,-0.266667 1.9626668,-0.906667 v 0.768 z m -1.344,-2.912 c 0,0.981333 -0.64,1.749333 -1.7173334,1.749333 -1.0346667,0 -1.7493334,-0.704 -1.7493334,-1.738666 0,-1.077334 0.7146667,-1.845334 1.7280001,-1.845334 1.0133334,0 1.7386667,0.757334 1.7386667,1.834667 z"
         style="font-style:normal;font-variant:normal;font-weight:bold;font-stretch:normal;font-size:10.66666698px;font-family:'TeX Gyre Adventor';-inkscape-font-specification:'TeX Gyre Adventor Bold';fill:#ffc300;fill-opacity:1;stroke:#fec000;stroke-width:0.5;stroke-miterlimit:4;stroke-dasharray:none;stroke-opacity:1"
         id="path835" />
      <path
         d="m 16.394178,24.050667 c 0,-1.781334 -1.237334,-3.072 -2.944,-3.072 -0.800001,0 -1.482667,0.298666 -1.941334,0.832 V 21.117333 H 10.207511 V 29 h 1.418666 v -2.528 c 0.533334,0.48 1.088,0.693334 1.813334,0.693334 1.706667,0 2.954667,-1.322667 2.954667,-3.114667 z m -1.429334,0.032 c 0,1.002667 -0.736,1.781333 -1.674666,1.781333 -1.002667,0 -1.749334,-0.768 -1.749334,-1.802666 0,-1.013334 0.746667,-1.781334 1.728,-1.781334 0.96,0 1.696,0.778667 1.696,1.802667 z"
         style="font-style:normal;font-variant:normal;font-weight:bold;font-stretch:normal;font-size:10.66666698px;font-family:'TeX Gyre Adventor';-inkscape-font-specification:'TeX Gyre Adventor Bold';fill:#ffc300;fill-opacity:1;stroke:#fec000;stroke-width:0.5;stroke-miterlimit:4;stroke-dasharray:none;stroke-opacity:1"
         id="path837" />
      <path
         d="m 23.435845,24.050667 c 0,-1.781334 -1.237334,-3.072 -2.944001,-3.072 -0.8,0 -1.482666,0.298666 -1.941333,0.832 V 21.117333 H 17.249178 V 29 h 1.418666 v -2.528 c 0.533334,0.48 1.088,0.693334 1.813334,0.693334 1.706667,0 2.954667,-1.322667 2.954667,-3.114667 z m -1.429334,0.032 c 0,1.002667 -0.736,1.781333 -1.674667,1.781333 -1.002666,0 -1.749333,-0.768 -1.749333,-1.802666 0,-1.013334 0.746667,-1.781334 1.728,-1.781334 0.96,0 1.696,0.778667 1.696,1.802667 z"
         style="font-style:normal;font-variant:normal;font-weight:bold;font-stretch:normal;font-size:10.66666698px;font-family:'TeX Gyre Adventor';-inkscape-font-specification:'TeX Gyre Adventor Bold';fill:#ffc300;fill-opacity:1;stroke:#fec000;stroke-width:0.5;stroke-miterlimit:4;stroke-dasharray:none;stroke-opacity:1"
         id="path839" />
    </g>
    <g
       style="font-style:normal;font-variant:normal;font-weight:bold;font-stretch:normal;font-size:1.41111112px;line-height:1.25;font-family:sans-serif;-inkscape-font-specification:'sans-serif Bold';letter-spacing:0px;word-spacing:0px;fill:#ffc300;fill-opacity:1;stroke:#fec000;stroke-width:0.26458332;stroke-opacity:1"
       id="text833" />
  </g>
  <g
     inkscape:groupmode="layer"
     id="layer2"
     inkscape:label="one"
     style="display:inline" />
</svg>
